<?xml version="1.0" standalone="yes"?>

<svg version="1.1" viewBox="0.0 0.0 359.0 349.0" fill="none" stroke="none" stroke-linecap="square" stroke-miterlimit="10" xmlns="http://www.w3.org/2000/svg" xmlns:xlink="http://www.w3.org/1999/xlink"><clipPath id="p.0"><path d="m0 0l359.0 0l0 349.0l-359.0 0l0 -349.0z" clip-rule="nonzero"></path></clipPath><g clip-path="url(#p.0)"><path fill="#000000" fill-opacity="0.0" d="m0 0l359.27036 0l0 349.04724l-359.27036 0z" fill-rule="nonzero"></path><path fill="#28b6f3" d="m337.53622 171.27185l0 0c0 -87.69336 -71.330444 -158.77052 -159.32098 -158.75528l0 0c-42.254562 0.007320404 -82.77848 16.743206 -112.65697 46.525948c-29.878479 29.782742 -46.66404 70.1727 -46.66404 112.284546l0 0c0 87.69336 71.330444 158.77054 159.321 158.75528l0 0c87.99054 -0.0152282715 159.32098 -71.117096 159.32098 -158.81049z" fill-rule="nonzero"></path><path fill="#72ff1a" d="m227.95248 26.228195c-10.539352 -11.635819 -42.722015 -17.95949 -46.297867 -9.792101c-3.5758667 8.167387 13.550583 36.543938 24.842758 58.796425c11.29216 22.252487 38.957962 46.748 42.910217 74.7185c3.9522552 27.97049 -9.221924 71.66499 -19.19667 93.10448c-9.974747 21.439499 -33.50009 23.689438 -40.651794 35.532486c-7.151703 11.843048 -3.7640533 27.359314 -2.258438 35.52585c1.5056305 8.166504 4.705078 12.453491 11.29216 13.473206c6.587097 1.0196838 25.219177 -2.4544067 28.230423 -7.3549805c3.0112457 -4.9006042 -15.056229 -9.389191 -10.162949 -22.048523c4.893265 -12.659332 30.677048 -33.693237 39.522568 -53.907516c8.84552 -20.21428 13.174194 -44.91951 13.550598 -67.37819c0.3764038 -22.45868 -13.362396 -47.569107 -11.292175 -67.37388c2.0702515 -19.804771 22.396149 -40.837723 23.713562 -51.454746c1.3174133 -10.617027 -9.598328 -16.944382 -15.809021 -12.247414c-6.2106934 4.696968 -15.056229 43.69482 -21.455124 40.42922c-6.3988953 -3.265602 -6.3988953 -48.386993 -16.938248 -60.02281z" fill-rule="nonzero"></path><path fill="#72ff1a" d="m64.98427 67.87244c11.677559 -1.7981949 35.415543 -3.1993256 52.83616 3.5831833c17.420616 6.782501 44.03013 22.544258 51.68754 37.111847c7.6574097 14.567596 -0.7657471 32.131584 -5.7430573 50.293694c-4.9773254 18.162125 -23.355118 31.536774 -24.12085 58.679c-0.7657471 27.142227 23.355103 89.00607 19.526398 104.17438c-3.8287048 15.168304 -33.69262 -1.3912048 -42.498642 -13.164551c-8.80603 -11.773346 0.19142914 -37.91913 -10.337509 -57.475586c-10.528946 -19.556442 -43.455826 -38.5103 -52.836155 -59.863113c-9.380333 -21.352814 -2.488659 -50.092697 -3.445839 -68.253784c-0.9571762 -18.161087 -4.785881 -31.531898 -2.2972221 -40.712738c2.488659 -9.180847 5.5516243 -12.574142 17.22918 -14.37233z" fill-rule="nonzero"></path><path fill="#28b6f3" d="m97.398346 103.60891c8.4663315 2.4601364 23.28241 2.6626968 28.862495 12.303001c5.5800858 9.640297 6.9269943 31.384201 4.618004 45.538803c-2.3090057 14.154602 -9.428421 37.130768 -18.472 39.388794c-9.043587 2.2580414 -29.632172 -11.6874695 -35.789505 -25.840607c-6.1573334 -14.153122 -0.9620819 -46.770233 -1.1544952 -59.078194c-0.19242096 -12.307968 -3.655922 -12.7176285 0 -14.7696c3.6559143 -2.0519638 13.469162 -0.0023345947 21.935501 2.4578018z" fill-rule="nonzero"></path></g></svg>

